# xmcd
#
# Track frame offsets: 
#        150
#        13917
#        28035
#        41556
#        55299
#        68493
#        82186
#        95205
#        109268
#        123679
#        136240
#        150616
#        165268
#        179771
#        193938
#        208029
#        222776
#        238387
#        252071
#        266171
#        280696
#        295902
#        311087
#        324669
#        338884
#
# Disc length: 4720 seconds
#
# Revision: 0
# Processed by: cddbd v1.5.2PL0 Copyright (c) Steve Scherf et al.
# Submitted via: ExactAudioCopy v0.95b4
#
DISCID=88126e19
DTITLE=Leroy Carr and Scrapper Blackwell - How Long Has That Evening Tra
DTITLE=in Benn Gone
DYEAR=2008
DGENRE=Pre-War  Blues
TTITLE0=My Own Lonesome Blues
TTITLE1=How Long, How Long Blues
TTITLE2=Broken Spoke Blues
TTITLE3=Tennessee Blues
TTITLE4=Truthful Blues
TTITLE5=Mean Old Train Blues
TTITLE6=You Got To Reap What You Saw
TTITLE7=Low Down Dirty Blues
TTITLE8=Box Car Blues
TTITLE9=How Long, How Long Blues N°2
TTITLE10=How Long, How Long Blues N°3
TTITLE11=Baby Dont'You Leave Me No More
TTITLE12=Tired Of Your Low Down Ways
TTITLE13=I'm Going Away And Leave My Baby
TTITLE14=Prison Bound Blues
TTITLE15=You Don't Mean Me No Good
TTITLE16=How About Me
TTITLE17=Straight Alky Blues Part 1
TTITLE18=Think Of Me Thinking Of You
TTITLE19=The Truth About The Thing
TTITLE20=Straight Alky Blues Part 2
TTITLE21=Straight Alky Blues Part 3
TTITLE22=Lifeboat Blues
TTITLE23=Gambler's Blues
TTITLE24=There Ain't Nobody Got It Like She Got It
EXTD=
EXTT0=
EXTT1=
EXTT2=
EXTT3=
EXTT4=
EXTT5=
EXTT6=
EXTT7=
EXTT8=
EXTT9=
EXTT10=
EXTT11=
EXTT12=
EXTT13=
EXTT14=
EXTT15=
EXTT16=
EXTT17=
EXTT18=
EXTT19=
EXTT20=
EXTT21=
EXTT22=
EXTT23=
EXTT24=
PLAYORDER=
